<?xml version="1.0" encoding="utf-8"?>
<!-- Generator: Adobe Illustrator 22.1.0, SVG Export Plug-In . SVG Version: 6.00 Build 0)  -->
<svg version="1.1" id="Layer_1" xmlns="http://www.w3.org/2000/svg" xmlns:xlink="http://www.w3.org/1999/xlink" x="0px" y="0px"
	 viewBox="0 0 1000 1000" style="enable-background:new 0 0 1000 1000;" xml:space="preserve">
<style type="text/css">
	.st0{fill:#FFFFFF;}
</style>
<path class="st0" d="M500,326.1c-103.3,0-187,83.7-187,187s83.7,187,187,187s187-83.7,187-187S603.2,326.1,500,326.1z M568.2,610.9
	c-8,3.6-16.8,5.2-21.7,6.7c-18.3-0.8-31.4-5.8-44.5-10.8c-52.6-20-86.7-58.8-109.2-108.9c-6.8-15.2-5.9-31.2-0.6-46.7
	c5.5-16.3,20.4-25.1,37.1-21.8c3.2,0.6,7.3,3.2,8.7,6.1c6.6,13.5,12.7,27.3,18.1,41.3c1.2,3-0.4,7.9-2.2,11.1
	c-2.9,5.1-6.8,9.7-10.6,14.3c-2.3,2.8-2.7,5.3-0.8,8.6c15.7,26.9,37.3,47.1,66.3,59c5.6,2.3,9.7,1.3,13.5-3.2
	c4.9-5.9,10-11.6,14.9-17.4c2.8-3.3,6-4.4,10.1-2.4c13.5,6.6,27.2,12.9,40.5,19.9c2.2,1.1,4,5,4.1,7.6
	C592.2,591.6,583.7,604,568.2,610.9z M489.2,448.6c4.2,0.3,8.5,0.9,12.7,1.8c36.4,7.8,63.3,36.1,70.9,70.3c0.5,2.2-1.5,4.2-3.7,3.6
	l-4.1-1.1c-1.1-0.3-1.9-1.1-2.2-2.2c-7.4-29.7-31.1-54.2-63-61c-3.3-0.7-6.6-1.2-9.9-1.5c-1.2-0.1-2.2-0.9-2.6-2.1l-1.3-3.9
	C485.4,450.5,487,448.5,489.2,448.6z M598.1,522.4l-3.9-1c-1.2-0.3-2.1-1.3-2.2-2.5c-5.8-42.4-37.5-78.7-81.7-88.1
	c-7.2-1.5-14.3-2.2-21.4-2.3c-1.3,0-2.5-0.8-2.9-2.1l-1.2-3.8c-0.6-2,0.8-3.9,2.9-4c8.1-0.1,16.4,0.8,24.6,2.5
	c48.9,10.4,83.8,50.9,89.6,97.9C602.1,521.3,600.2,523,598.1,522.4z"/>
</svg>
